<svg xmlns="http://www.w3.org/2000/svg" width="33.482" height="28.988" viewBox="0 0 33.482 28.988">
  <g id="paw-print-svgrepo-com" transform="translate(0 -4.258)">
    <g id="Grupo_1" data-name="Grupo 1" transform="translate(0 4.258)">
      <path id="Caminho_1" data-name="Caminho 1" d="M17.232,17.276c2.674,0,4.85-2.92,4.85-6.509s-2.176-6.509-4.85-6.509-4.85,2.92-4.85,6.509S14.557,17.276,17.232,17.276Zm0-11.435C19,5.841,20.5,8.1,20.5,10.767s-1.5,4.926-3.267,4.926-3.267-2.256-3.267-4.926S15.461,5.841,17.232,5.841Z" transform="translate(-5.848 -4.258)" fill="#c69c6d"/>
      <path id="Caminho_2" data-name="Caminho 2" d="M30.79,36a2.425,2.425,0,0,1-.246-.373c-1.084-2.321-4.058-5.058-8.873-5.126h-.185c-4.742,0-7.692,2.592-8.873,5.019a1.88,1.88,0,0,1-.225.3,4.265,4.265,0,0,0-.319.418,8.526,8.526,0,0,0-1.431,4.917,4.686,4.686,0,0,0,2.024,3.889,2.893,2.893,0,0,0,1.589.479,6.937,6.937,0,0,0,3.44-1.406,17.711,17.711,0,0,1,2.479-1.346,5.585,5.585,0,0,1,1.183-.083,7.052,7.052,0,0,1,1.5.114,16.4,16.4,0,0,1,2.382,1.378,6.562,6.562,0,0,0,3.375,1.456,2.879,2.879,0,0,0,1.442-.392c2.522-1.433,3-5.363,1.071-8.762A5.149,5.149,0,0,0,30.79,36Zm-1.526,7.872a1.3,1.3,0,0,1-.66.185,5.6,5.6,0,0,1-2.5-1.195,17.833,17.833,0,0,0-2.612-1.505,6.845,6.845,0,0,0-2.135-.249,5.37,5.37,0,0,0-1.774.2,19.3,19.3,0,0,0-2.717,1.467,6.105,6.105,0,0,1-2.61,1.171,1.306,1.306,0,0,1-.733-.228,3.16,3.16,0,0,1-1.3-2.63A6.942,6.942,0,0,1,13.4,37.1a2.494,2.494,0,0,1,.2-.26,3.04,3.04,0,0,0,.434-.627c.971-2,3.438-4.127,7.449-4.127h.163c4.083.058,6.571,2.306,7.461,4.212a3.828,3.828,0,0,0,.408.645,3.471,3.471,0,0,1,.225.327C31.241,39.908,31.027,42.87,29.265,43.872Z" transform="translate(-5.021 -16.651)" fill="#c69c6d"/>
      <path id="Caminho_3" data-name="Caminho 3" d="M36.771,17.276c2.675,0,4.85-2.92,4.85-6.509s-2.175-6.509-4.85-6.509-4.849,2.92-4.849,6.509S34.1,17.276,36.771,17.276Zm0-11.435c1.771,0,3.267,2.256,3.267,4.926s-1.5,4.926-3.267,4.926-3.266-2.256-3.266-4.926S35,5.841,36.771,5.841Z" transform="translate(-15.075 -4.258)" fill="#c69c6d"/>
      <path id="Caminho_4" data-name="Caminho 4" d="M52.785,22.592c-2.143,0-3.821,2.223-3.821,5.061s1.679,5.06,3.821,5.06,3.821-2.223,3.821-5.06S54.929,22.592,52.785,22.592Zm0,8.538c-1.213,0-2.238-1.593-2.238-3.477s1.025-3.478,2.238-3.478,2.238,1.593,2.238,3.478S54,31.13,52.785,31.13Z" transform="translate(-23.124 -12.916)" fill="#c69c6d"/>
      <path id="Caminho_5" data-name="Caminho 5" d="M7.643,27.653c0-2.838-1.679-5.061-3.821-5.061S0,24.815,0,27.653s1.679,5.06,3.821,5.06S7.643,30.49,7.643,27.653ZM3.821,31.13c-1.213,0-2.238-1.593-2.238-3.477s1.025-3.478,2.238-3.478S6.06,25.768,6.06,27.653,5.035,31.13,3.821,31.13Z" transform="translate(0 -12.916)" fill="#c69c6d"/>
    </g>
  </g>
</svg>
