<svg xmlns="http://www.w3.org/2000/svg" width="35.017" height="24.154" viewBox="0 0 35.017 24.154">
  <path id="flower-lotus-thin-svgrepo-com" d="M42.169,50.036a1.721,1.721,0,0,0-1.07-.813,11.314,11.314,0,0,0-4.643-.148,12.042,12.042,0,0,0-.191-6.429,1.737,1.737,0,0,0-2.019-1.165,11.576,11.576,0,0,0-4.168,1.85,13.149,13.149,0,0,0-4.138-5.382,1.737,1.737,0,0,0-2.092,0,13.148,13.148,0,0,0-4.139,5.382,11.576,11.576,0,0,0-4.168-1.85,1.737,1.737,0,0,0-2.019,1.165,12.042,12.042,0,0,0-.191,6.429,11.316,11.316,0,0,0-4.643.148A1.736,1.736,0,0,0,7.45,51.369c.49,1.751,2,5.085,6.574,7.728a20.369,20.369,0,0,0,10.868,2.654h0A20.369,20.369,0,0,0,35.765,59.1c4.578-2.643,6.084-5.976,6.574-7.728a1.72,1.72,0,0,0-.169-1.333Zm-7.681-7.421a.58.58,0,0,1,.673.388,11.092,11.092,0,0,1-.048,6.61.585.585,0,0,0-.027.094,15.735,15.735,0,0,1-1.446,3.283,18.658,18.658,0,0,1-4.874,5.46c-.121.092-.242.18-.362.266a14.764,14.764,0,0,0,2.877-9.159,16.266,16.266,0,0,0-.78-5.1,10.492,10.492,0,0,1,3.987-1.838Zm-9.946-3.737a.583.583,0,0,1,.7,0c1.466,1.094,4.874,4.324,4.874,10.68a13.592,13.592,0,0,1-2.744,8.57,11,11,0,0,1-2.481,2.358,11,11,0,0,1-2.481-2.358,13.592,13.592,0,0,1-2.744-8.57C19.668,43.2,23.077,39.972,24.543,38.878ZM14.627,43a.58.58,0,0,1,.673-.389,10.492,10.492,0,0,1,3.987,1.838,16.269,16.269,0,0,0-.78,5.1,14.764,14.764,0,0,0,2.877,9.159c-.12-.086-.24-.174-.362-.266a18.658,18.658,0,0,1-4.874-5.46,15.725,15.725,0,0,1-1.45-3.3.579.579,0,0,0-.023-.079A11.092,11.092,0,0,1,14.627,43ZM8.568,51.056a.575.575,0,0,1,.409-.709,10.358,10.358,0,0,1,4.7-.027,17.063,17.063,0,0,0,1.464,3.251,20.024,20.024,0,0,0,6.8,6.9A18.039,18.039,0,0,1,14.6,58.091C10.382,55.654,9.01,52.637,8.568,51.056Zm32.651,0c-.442,1.581-1.814,4.6-6.036,7.035a18.039,18.039,0,0,1-7.338,2.381,20.024,20.024,0,0,0,6.8-6.9,17.067,17.067,0,0,0,1.464-3.251,10.358,10.358,0,0,1,4.7.027.575.575,0,0,1,.409.709Z" transform="translate(-7.386 -37.597)" fill="#c69c6d"/>
</svg>
