<svg xmlns="http://www.w3.org/2000/svg" width="35.887" height="31.346" viewBox="0 0 35.887 31.346">
  <g id="crutches-crutch-svgrepo-com" transform="translate(0 -31.631)">
    <g id="Grupo_2" data-name="Grupo 2" transform="translate(0 31.631)">
      <path id="Caminho_9" data-name="Caminho 9" d="M35.161,36.912a6.427,6.427,0,0,1-2.71-1.844,6.427,6.427,0,0,1-1.844-2.71.853.853,0,0,0-.949-.718.843.843,0,0,0-.718.949,3.3,3.3,0,0,0,.26.857l-8.074,8.074a.835.835,0,0,0-.157.216,3.41,3.41,0,0,0-.638,3.1L17.944,47.5l-2.387-2.667a3.41,3.41,0,0,0-.638-3.1.833.833,0,0,0-.156-.216l-3.39-3.391-.005,0-4.679-4.68a3.279,3.279,0,0,0,.26-.857.842.842,0,1,0-1.667-.231,6.421,6.421,0,0,1-1.844,2.71,6.432,6.432,0,0,1-2.71,1.844.842.842,0,0,0,.232,1.667,3.293,3.293,0,0,0,.857-.26L6.491,43,6.5,43l.008.007,3.382,3.382a.792.792,0,0,0,.107.09,3.407,3.407,0,0,0,3.187.721l2.792,2.5L6.157,60.668a.275.275,0,0,0-.11.045l-1.37.986a.279.279,0,0,0-.116.2.283.283,0,0,0,.081.221l.77.771a.281.281,0,0,0,.2.082h.023a.279.279,0,0,0,.2-.115l.986-1.37a.27.27,0,0,0,.044-.11l11.075-9.913,11.074,9.914a.272.272,0,0,0,.045.11l.986,1.37a.279.279,0,0,0,.2.115h.023a.282.282,0,0,0,.2-.082l.77-.771a.28.28,0,0,0-.035-.426l-1.37-.986a.278.278,0,0,0-.111-.045L19.913,49.7,22.7,47.2a3.407,3.407,0,0,0,3.187-.721.748.748,0,0,0,.106-.09l3.38-3.381.01-.009L29.4,43l4.678-4.677a3.287,3.287,0,0,0,.856.26.841.841,0,1,0,.233-1.667ZM3.3,37.42a12.575,12.575,0,0,0,1.33-1.162,12.494,12.494,0,0,0,1.163-1.331l3.8,3.8L7.094,41.218ZM13.49,45.136a1.743,1.743,0,0,1-2.429.043c-.016-.014-.032-.029-.048-.042L8.284,42.408l2.493-2.493,2.65,2.65a.833.833,0,0,0,.106.142A1.745,1.745,0,0,1,13.49,45.136Zm11.384,0c-.016.013-.032.027-.048.042a1.749,1.749,0,0,1-2.472-2.472.816.816,0,0,0,.106-.142l2.65-2.65L27.6,42.408Zm3.919-3.919L26.3,38.725l3.8-3.8a12.655,12.655,0,0,0,1.163,1.331,12.494,12.494,0,0,0,1.33,1.162Z" transform="translate(0 -31.631)" fill="#c69c6d"/>
    </g>
  </g>
</svg>
