<svg xmlns="http://www.w3.org/2000/svg" width="12.68" height="33.442" viewBox="0 0 12.68 33.442">
  <g id="serum-serumbottle-vitamin-svgrepo-com_1_" data-name="serum-serumbottle-vitamin-svgrepo-com (1)" transform="translate(-11 -3)">
    <path id="Caminho_6" data-name="Caminho 6" d="M23.179,17.717V31.59A1.363,1.363,0,0,1,21.8,32.965H12.889A1.389,1.389,0,0,1,11.5,31.577V17.717a4.191,4.191,0,0,1,2.777-4,4.01,4.01,0,0,1,1.3-.221H19.1a4.01,4.01,0,0,1,1.3.221,4.191,4.191,0,0,1,2.777,4Z" transform="translate(0 2.977)" fill="none" stroke="#c69c6d" stroke-linejoin="round" stroke-width="1"/>
    <path id="Caminho_7" data-name="Caminho 7" d="M19.988,9.5v5.4a4.84,4.84,0,0,0-1.376-.208H14.876A4.84,4.84,0,0,0,13.5,14.9V9.5Z" transform="translate(0.595 1.786)" fill="none" stroke="#c69c6d" stroke-linejoin="round" stroke-width="1"/>
    <path id="Caminho_8" data-name="Caminho 8" d="M16.447,3.5h0a1.947,1.947,0,0,1,1.947,1.947v5.84H14.5V5.447A1.947,1.947,0,0,1,16.447,3.5Z" transform="translate(0.893 0)" fill="none" stroke="#c69c6d" stroke-linejoin="round" stroke-width="1"/>
  </g>
</svg>
