<svg xmlns="http://www.w3.org/2000/svg" width="25.83" height="25.841" viewBox="0 0 25.83 25.841">
  <g id="Stethoscope" transform="translate(-3.065 -3.061)">
    <path id="Caminho_10" data-name="Caminho 10" d="M24.923,12.017A3.973,3.973,0,0,0,24.2,19.9v3.339a4.226,4.226,0,0,1-4.221,4.221H15.96a4.226,4.226,0,0,1-4.221-4.221V21.818a7.951,7.951,0,0,0,7.228-7.908V6.277a2.144,2.144,0,0,0-1.489-2.053L14.139,3.1a.723.723,0,0,0-.911.463.71.71,0,0,0,.448.911L17.03,5.6a.7.7,0,0,1,.492.679v7.633a6.505,6.505,0,0,1-13.011,0V6.277A.7.7,0,0,1,5,5.6L8.356,4.47A.71.71,0,0,0,8.8,3.56.723.723,0,0,0,7.894,3.1L4.554,4.225A2.144,2.144,0,0,0,3.065,6.277v7.633a7.951,7.951,0,0,0,7.228,7.908v1.417A5.676,5.676,0,0,0,15.96,28.9h4.019a5.676,5.676,0,0,0,5.667-5.667V19.9a3.973,3.973,0,0,0-.723-7.879Zm0,6.505a2.53,2.53,0,1,1,2.53-2.53,2.53,2.53,0,0,1-2.53,2.53Z" transform="translate(0 0)" fill="#c69c6d"/>
  </g>
</svg>
