<svg xmlns="http://www.w3.org/2000/svg" width="26.279" height="26.282" viewBox="0 0 26.279 26.282">
  <path id="pill-thin-svgrepo-com" d="M55.078,32.694a6.655,6.655,0,0,0-9.412,0L32.695,45.666a6.655,6.655,0,1,0,9.412,9.412L55.078,42.106A6.663,6.663,0,0,0,55.078,32.694ZM41.342,54.314a5.574,5.574,0,0,1-7.883-7.883l6.1-6.1,7.883,7.883ZM54.314,41.342l-6.1,6.1-7.883-7.883,6.1-6.1a5.574,5.574,0,0,1,7.883,7.883Zm-2.406-3.171a.54.54,0,0,1-.013.764l-3.3,3.187a.541.541,0,0,1-.751-.777l3.3-3.187A.54.54,0,0,1,51.907,38.172Z" transform="translate(-30.745 -30.745)" fill="#c69c6d"/>
</svg>
